<svg width="16" height="16" viewBox="0 0 16 16" fill="none" xmlns="http://www.w3.org/2000/svg">
<path d="M8.16667 1.75C4.72292 1.75 1.91667 4.55625 1.91667 8C1.91667 11.4438 4.72292 14.25 8.16667 14.25C11.6104 14.25 14.4167 11.4438 14.4167 8C14.4167 4.55625 11.6104 1.75 8.16667 1.75ZM10.2667 9.4375C10.4479 9.61875 10.4479 9.91875 10.2667 10.1C10.1729 10.1937 10.0542 10.2375 9.93542 10.2375C9.81667 10.2375 9.69792 10.1937 9.60417 10.1L8.16667 8.6625L6.72917 10.1C6.63542 10.1937 6.51667 10.2375 6.39792 10.2375C6.27917 10.2375 6.16042 10.1937 6.06667 10.1C5.88542 9.91875 5.88542 9.61875 6.06667 9.4375L7.50417 8L6.06667 6.5625C5.88542 6.38125 5.88542 6.08125 6.06667 5.9C6.24792 5.71875 6.54792 5.71875 6.72917 5.9L8.16667 7.3375L9.60417 5.9C9.78542 5.71875 10.0854 5.71875 10.2667 5.9C10.4479 6.08125 10.4479 6.38125 10.2667 6.5625L8.82917 8L10.2667 9.4375Z" fill="white"/>
</svg>
