<svg width="16" height="16" viewBox="0 0 16 16" fill="none" xmlns="http://www.w3.org/2000/svg">
<path d="M8 1.75C4.55625 1.75 1.75 4.55625 1.75 8C1.75 11.4438 4.55625 14.25 8 14.25C11.4438 14.25 14.25 11.4438 14.25 8C14.25 4.55625 11.4438 1.75 8 1.75ZM10.1 9.4375C10.2812 9.61875 10.2812 9.91875 10.1 10.1C10.0062 10.1937 9.8875 10.2375 9.76875 10.2375C9.65 10.2375 9.53125 10.1937 9.4375 10.1L8 8.6625L6.5625 10.1C6.46875 10.1937 6.35 10.2375 6.23125 10.2375C6.1125 10.2375 5.99375 10.1937 5.9 10.1C5.71875 9.91875 5.71875 9.61875 5.9 9.4375L7.3375 8L5.9 6.5625C5.71875 6.38125 5.71875 6.08125 5.9 5.9C6.08125 5.71875 6.38125 5.71875 6.5625 5.9L8 7.3375L9.4375 5.9C9.61875 5.71875 9.91875 5.71875 10.1 5.9C10.2812 6.08125 10.2812 6.38125 10.1 6.5625L8.6625 8L10.1 9.4375Z" fill="#F24557"/>
</svg>
