<svg width="16" height="16" viewBox="0 0 16 16" fill="none" xmlns="http://www.w3.org/2000/svg">
<path d="M10.7933 1.33334H5.20667C2.78 1.33334 1.33333 2.78001 1.33333 5.20668V10.7867C1.33333 13.22 2.78 14.6667 5.20667 14.6667H10.7867C13.2133 14.6667 14.66 13.22 14.66 10.7933V5.20668C14.6667 2.78001 13.22 1.33334 10.7933 1.33334ZM7.3 11.6733C7.10667 11.8667 6.74 12.0533 6.47333 12.0933L4.83333 12.3267C4.77333 12.3333 4.71333 12.34 4.65333 12.34C4.38 12.34 4.12667 12.2467 3.94667 12.0667C3.72667 11.8467 3.63333 11.5267 3.68667 11.1733L3.92 9.53334C3.96 9.26001 4.14 8.90001 4.34 8.70668L7.31333 5.73334C7.36667 5.87334 7.42 6.01334 7.49333 6.17334C7.56 6.31334 7.63333 6.46001 7.71333 6.59334C7.78 6.70668 7.85333 6.81334 7.91333 6.89334C7.98667 7.00668 8.07333 7.11334 8.12667 7.17334C8.16 7.22001 8.18667 7.25334 8.2 7.26668C8.36667 7.46668 8.56 7.65334 8.72667 7.79334C8.77333 7.84001 8.8 7.86668 8.81333 7.87334C8.91333 7.95334 9.01333 8.03334 9.1 8.09334C9.20667 8.17334 9.31333 8.24668 9.42667 8.30668C9.56 8.38668 9.70667 8.46001 9.85333 8.53334C10.0067 8.60001 10.1467 8.66001 10.2867 8.70668L7.3 11.6733ZM11.58 7.39334L10.9667 8.01334C10.9267 8.05334 10.8733 8.07334 10.82 8.07334C10.8 8.07334 10.7733 8.07334 10.76 8.06668C9.40667 7.68001 8.32667 6.60001 7.94 5.24668C7.92 5.17334 7.94 5.09334 7.99333 5.04668L8.61333 4.42668C9.62667 3.41334 10.5933 3.43334 11.5867 4.42668C12.0933 4.93334 12.34 5.42001 12.34 5.92668C12.3333 6.40668 12.0867 6.88668 11.58 7.39334Z" fill="#1064BC"/>
</svg>
