<svg width="28" height="28" viewBox="0 0 28 28" fill="none" xmlns="http://www.w3.org/2000/svg">
<rect width="28" height="28" rx="14" fill="#F1F6FB"/>
<path d="M16.7933 7.33333H11.2067C8.78 7.33333 7.33333 8.77999 7.33333 11.2067V16.7867C7.33333 19.22 8.78 20.6667 11.2067 20.6667H16.7867C19.2133 20.6667 20.66 19.22 20.66 16.7933V11.2067C20.6667 8.77999 19.22 7.33333 16.7933 7.33333ZM13.3 17.6733C13.1067 17.8667 12.74 18.0533 12.4733 18.0933L10.8333 18.3267C10.7733 18.3333 10.7133 18.34 10.6533 18.34C10.38 18.34 10.1267 18.2467 9.94667 18.0667C9.72667 17.8467 9.63333 17.5267 9.68667 17.1733L9.92 15.5333C9.96 15.26 10.14 14.9 10.34 14.7067L13.3133 11.7333C13.3667 11.8733 13.42 12.0133 13.4933 12.1733C13.56 12.3133 13.6333 12.46 13.7133 12.5933C13.78 12.7067 13.8533 12.8133 13.9133 12.8933C13.9867 13.0067 14.0733 13.1133 14.1267 13.1733C14.16 13.22 14.1867 13.2533 14.2 13.2667C14.3667 13.4667 14.56 13.6533 14.7267 13.7933C14.7733 13.84 14.8 13.8667 14.8133 13.8733C14.9133 13.9533 15.0133 14.0333 15.1 14.0933C15.2067 14.1733 15.3133 14.2467 15.4267 14.3067C15.56 14.3867 15.7067 14.46 15.8533 14.5333C16.0067 14.6 16.1467 14.66 16.2867 14.7067L13.3 17.6733ZM17.58 13.3933L16.9667 14.0133C16.9267 14.0533 16.8733 14.0733 16.82 14.0733C16.8 14.0733 16.7733 14.0733 16.76 14.0667C15.4067 13.68 14.3267 12.6 13.94 11.2467C13.92 11.1733 13.94 11.0933 13.9933 11.0467L14.6133 10.4267C15.6267 9.41333 16.5933 9.43333 17.5867 10.4267C18.0933 10.9333 18.34 11.42 18.34 11.9267C18.3333 12.4067 18.0867 12.8867 17.58 13.3933Z" fill="#1064BC"/>
</svg>
