<svg width="15" height="16" viewBox="0 0 15 16" fill="none" xmlns="http://www.w3.org/2000/svg">
<path d="M7.5 1.75C4.05625 1.75 1.25 4.55625 1.25 8C1.25 11.4438 4.05625 14.25 7.5 14.25C10.9438 14.25 13.75 11.4438 13.75 8C13.75 4.55625 10.9438 1.75 7.5 1.75ZM10.4875 6.5625L6.94375 10.1062C6.85625 10.1938 6.7375 10.2437 6.6125 10.2437C6.4875 10.2437 6.36875 10.1938 6.28125 10.1062L4.5125 8.3375C4.33125 8.15625 4.33125 7.85625 4.5125 7.675C4.69375 7.49375 4.99375 7.49375 5.175 7.675L6.6125 9.1125L9.825 5.9C10.0063 5.71875 10.3063 5.71875 10.4875 5.9C10.6688 6.08125 10.6688 6.375 10.4875 6.5625Z" fill="#10BC4F"/>
</svg>
