<svg width="16" height="16" viewBox="0 0 16 16" fill="none" xmlns="http://www.w3.org/2000/svg">
<path d="M8.33334 1.75C4.88959 1.75 2.08334 4.55625 2.08334 8C2.08334 11.4438 4.88959 14.25 8.33334 14.25C11.7771 14.25 14.5833 11.4438 14.5833 8C14.5833 4.55625 11.7771 1.75 8.33334 1.75ZM11.3208 6.5625L7.77709 10.1062C7.68959 10.1938 7.57084 10.2437 7.44584 10.2437C7.32084 10.2437 7.20209 10.1938 7.11459 10.1062L5.34584 8.3375C5.16459 8.15625 5.16459 7.85625 5.34584 7.675C5.52709 7.49375 5.82709 7.49375 6.00834 7.675L7.44584 9.1125L10.6583 5.9C10.8396 5.71875 11.1396 5.71875 11.3208 5.9C11.5021 6.08125 11.5021 6.375 11.3208 6.5625Z" fill="white"/>
</svg>
